<?xml version="1.0" encoding="utf-8"?>
<!-- Generator: Adobe Illustrator 16.0.0, SVG Export Plug-In . SVG Version: 6.00 Build 0)  -->
<!DOCTYPE svg PUBLIC "-//W3C//DTD SVG 1.1//EN" "http://www.w3.org/Graphics/SVG/1.1/DTD/svg11.dtd">
<svg version="1.1" id="Layer_1" xmlns="http://www.w3.org/2000/svg" xmlns:xlink="http://www.w3.org/1999/xlink" x="0px" y="0px"
	 width="137.999px" height="78px" viewBox="0 -19 137.999 78" enable-background="new 0 -19 137.999 78" xml:space="preserve">
<path fill="#FFFFFF" stroke="#9AB4D8" stroke-width="0.5" stroke-miterlimit="10" d="M28.244-9.397h81.512
	c4.494,0,8.238,3.744,8.238,8.239v42.315c0,4.494-3.744,8.24-8.238,8.24H28.244c-4.496,0-8.238-3.746-8.238-8.24V-1.158
	C20.006-5.653,23.748-9.397,28.244-9.397"/>
<g>
	<path fill-rule="evenodd" clip-rule="evenodd" fill="#105BAA" d="M38.958,8.93h-6.341v3.414h5.853c0.488,0,0.732,0.123,0.974,0.245
		c0.247,0.244,0.369,0.487,0.369,0.73c0,0.245-0.122,0.609-0.369,0.733c-0.241,0.242-0.485,0.242-0.974,0.242h-5.853v4.025h6.585
		c0.488,0,0.731,0.123,0.976,0.366c0.242,0.242,0.365,0.487,0.365,0.853c0,0.363-0.123,0.611-0.365,0.854
		c-0.244,0.243-0.609,0.365-0.976,0.365h-7.684c-0.608,0-1.095-0.122-1.341-0.365c-0.242-0.242-0.366-0.732-0.366-1.342
		l0.001-10.485c0-0.366,0.123-0.733,0.123-0.978c0.123-0.242,0.365-0.485,0.609-0.608c0.242-0.122,0.61-0.122,0.974-0.122h7.439
		c0.485,0,0.732,0.123,0.976,0.245c0.244,0.243,0.365,0.486,0.365,0.729c0,0.246-0.121,0.609-0.365,0.855
		C39.69,8.808,39.324,8.93,38.958,8.93L38.958,8.93z M51.275,17.709c0,0.366-0.125,0.611-0.244,0.978
		c-0.244,0.364-0.49,0.729-0.855,1.097c-0.486,0.366-0.974,0.608-1.464,0.852c-0.609,0.245-1.339,0.366-2.071,0.366
		c-1.586,0-2.805-0.487-3.781-1.462c-0.853-0.978-1.339-2.195-1.339-3.783c0-1.093,0.243-1.949,0.612-2.801
		c0.363-0.856,0.973-1.466,1.826-1.952c0.732-0.485,1.705-0.734,2.805-0.734c0.609,0,1.221,0.126,1.828,0.249
		c0.61,0.241,1.098,0.485,1.465,0.729c0.363,0.366,0.73,0.61,0.852,0.978c0.242,0.364,0.367,0.73,0.367,0.974
		c0,0.245-0.125,0.608-0.367,0.854c-0.242,0.242-0.488,0.363-0.852,0.363c-0.246,0-0.367,0-0.491-0.121
		c-0.242-0.122-0.363-0.366-0.486-0.488c-0.367-0.487-0.609-0.852-0.978-1.098c-0.365-0.242-0.729-0.366-1.338-0.366
		c-0.732,0-1.342,0.245-1.832,0.854c-0.486,0.609-0.729,1.466-0.729,2.438c0,0.486,0.121,0.978,0.121,1.339
		c0.122,0.368,0.243,0.734,0.489,1.101c0.242,0.244,0.487,0.486,0.852,0.61c0.367,0.119,0.732,0.242,1.1,0.242
		c0.486,0,0.973-0.123,1.339-0.366c0.367-0.242,0.735-0.608,0.977-1.096c0.123-0.244,0.368-0.491,0.487-0.734
		c0.244-0.119,0.491-0.242,0.732-0.242c0.367,0,0.61,0.123,0.733,0.364C51.15,17.222,51.275,17.466,51.275,17.709L51.275,17.709z
		 M62.615,15.637c0,0.73-0.125,1.466-0.366,2.196c-0.244,0.61-0.609,1.218-1.1,1.706c-0.487,0.487-0.974,0.854-1.583,1.097
		c-0.607,0.244-1.34,0.365-2.195,0.365c-0.732,0-1.461-0.121-2.072-0.365c-1.219-0.485-2.193-1.462-2.682-2.802
		c-0.246-0.731-0.367-1.466-0.367-2.197c0-0.73,0.121-1.463,0.367-2.192c0.244-0.611,0.607-1.22,1.097-1.709
		c0.487-0.487,0.975-0.854,1.585-1.1c0.732-0.24,1.341-0.366,2.072-0.366c0.73,0,1.463,0.126,2.195,0.366
		c1.22,0.491,2.192,1.463,2.683,2.809C62.49,14.173,62.615,14.907,62.615,15.637L62.615,15.637z M60.053,15.637
		c0-1.097-0.244-1.83-0.729-2.438c-0.489-0.609-1.097-0.854-1.829-0.854c-0.49,0-0.977,0.123-1.342,0.365
		c-0.367,0.246-0.732,0.611-0.855,1.221c-0.243,0.487-0.363,1.099-0.363,1.827c0,0.733,0.119,1.22,0.363,1.83
		c0.246,0.489,0.488,0.856,0.855,1.219c0.365,0.245,0.852,0.368,1.342,0.368c0.732,0,1.464-0.245,1.829-0.854
		C59.809,17.466,60.053,16.733,60.053,15.637L60.053,15.637z"/>
	<path fill-rule="evenodd" clip-rule="evenodd" fill="#EC2027" d="M76.148,16.247c0,0.487-0.121,0.976-0.363,1.463
		c-0.246,0.486-0.611,0.978-0.979,1.465c-0.484,0.486-1.096,0.853-1.826,1.218c-0.732,0.366-1.586,0.488-2.561,0.488
		c-0.731,0-1.342-0.122-1.951-0.245c-0.609-0.121-1.1-0.366-1.586-0.608c-0.489-0.366-0.976-0.732-1.343-1.221
		c-0.366-0.485-0.731-0.973-0.976-1.461c-0.242-0.611-0.484-1.099-0.609-1.708c-0.121-0.608-0.242-1.342-0.242-1.95
		c0-1.098,0.121-2.072,0.488-3.052c0.244-0.851,0.729-1.584,1.464-2.313c0.608-0.609,1.339-1.1,2.194-1.464
		c0.853-0.366,1.707-0.487,2.682-0.487c1.098,0,2.193,0.242,3.049,0.732c0.852,0.486,1.584,0.976,2.073,1.705
		c0.485,0.61,0.73,1.343,0.73,1.827c0,0.368-0.122,0.613-0.366,0.855c-0.242,0.245-0.487,0.367-0.854,0.367
		s-0.609-0.122-0.852-0.243c-0.125-0.124-0.367-0.487-0.611-0.855c-0.365-0.732-0.854-1.218-1.34-1.583
		c-0.49-0.368-1.1-0.488-1.83-0.488c-1.221,0-2.072,0.488-2.806,1.339c-0.731,0.854-0.976,2.198-0.976,3.78
		c0,1.099,0.123,1.949,0.489,2.684c0.244,0.731,0.729,1.219,1.341,1.585c0.609,0.367,1.218,0.486,1.951,0.486
		c0.854,0,1.463-0.242,2.07-0.608c0.61-0.367,0.978-0.978,1.22-1.83c0.124-0.366,0.242-0.609,0.49-0.851
		c0.119-0.244,0.485-0.367,0.852-0.367s0.612,0.123,0.854,0.367C76.027,15.637,76.148,16.004,76.148,16.247L76.148,16.247
		L76.148,16.247z M84.563,19.417c-0.609,0.486-1.219,0.853-1.829,1.098c-0.608,0.244-1.218,0.366-1.952,0.366
		c-0.607,0-1.218-0.122-1.704-0.366c-0.491-0.245-0.854-0.611-1.22-1.098c-0.246-0.487-0.365-0.973-0.365-1.463
		c0-0.731,0.242-1.34,0.73-1.83c0.488-0.486,1.098-0.851,1.828-0.974c0.123,0,0.608-0.121,1.221-0.243
		c0.611-0.123,1.22-0.242,1.707-0.366l1.461-0.366c0-0.73-0.119-1.219-0.366-1.465c-0.242-0.365-0.73-0.484-1.463-0.484
		c-0.61,0-1.095,0.119-1.462,0.242c-0.367,0.122-0.607,0.488-0.853,0.853c-0.122,0.245-0.366,0.488-0.488,0.734
		c-0.122,0.12-0.366,0.12-0.608,0.12c-0.245,0-0.613-0.12-0.732-0.244c-0.244-0.122-0.365-0.486-0.365-0.731
		c0-0.489,0.121-0.854,0.484-1.34c0.367-0.489,0.855-0.731,1.465-1.099c0.729-0.242,1.586-0.365,2.56-0.365
		c1.1,0,2.075,0.123,2.685,0.365c0.608,0.243,1.098,0.73,1.342,1.339c0.243,0.61,0.365,1.345,0.365,2.318v3.049
		c0,0.487,0.123,0.978,0.244,1.585c0.121,0.488,0.242,0.852,0.242,0.976c0,0.242-0.121,0.487-0.363,0.731
		c-0.244,0.244-0.488,0.366-0.855,0.366c-0.243,0-0.487-0.122-0.732-0.366C85.053,20.27,84.807,19.904,84.563,19.417L84.563,19.417
		L84.563,19.417z M84.32,15.637c-0.367,0.12-0.977,0.245-1.71,0.486c-0.728,0.123-1.22,0.244-1.462,0.367
		c-0.242,0.124-0.607,0.243-0.853,0.486c-0.245,0.246-0.366,0.49-0.366,0.857c0,0.361,0.121,0.729,0.487,0.972
		c0.242,0.245,0.731,0.368,1.22,0.368s0.974-0.123,1.464-0.368c0.487-0.243,0.73-0.485,0.973-0.852
		c0.247-0.367,0.366-1.099,0.366-1.949L84.32,15.637L84.32,15.637L84.32,15.637z M97.244,17.466c0,0.729-0.123,1.339-0.487,1.828
		c-0.366,0.489-0.854,0.855-1.585,1.22c-0.733,0.244-1.464,0.366-2.439,0.366c-0.977,0-1.708-0.122-2.438-0.488
		c-0.61-0.242-1.219-0.608-1.462-1.098c-0.367-0.489-0.49-0.852-0.49-1.341c0-0.244,0.123-0.487,0.366-0.731
		c0.243-0.246,0.49-0.367,0.731-0.367c0.244,0,0.486,0.121,0.609,0.247c0.123,0.12,0.244,0.364,0.367,0.607
		c0.241,0.485,0.608,0.853,0.975,1.096c0.365,0.246,0.854,0.368,1.463,0.368c0.49,0,0.975-0.122,1.219-0.368
		c0.365-0.243,0.491-0.485,0.491-0.852c0-0.487-0.126-0.731-0.491-0.978c-0.365-0.243-0.975-0.362-1.707-0.608
		c-0.853-0.244-1.585-0.485-2.193-0.73c-0.488-0.242-0.975-0.487-1.341-0.973c-0.366-0.368-0.489-0.856-0.489-1.466
		c0-0.489,0.123-0.974,0.489-1.463c0.366-0.487,0.731-0.854,1.341-1.1c0.607-0.24,1.341-0.366,2.193-0.366
		c0.732,0,1.221,0.126,1.829,0.249c0.488,0.117,0.978,0.362,1.342,0.608c0.366,0.242,0.61,0.487,0.854,0.731
		c0.243,0.24,0.243,0.608,0.243,0.852c0,0.246-0.122,0.489-0.243,0.734c-0.244,0.243-0.489,0.243-0.854,0.243
		c-0.243,0-0.488-0.122-0.731-0.243c-0.242-0.245-0.487-0.488-0.611-0.734c-0.24-0.242-0.365-0.484-0.73-0.611
		c-0.242-0.122-0.609-0.24-1.098-0.24c-0.486,0-0.854,0.118-1.219,0.24c-0.367,0.245-0.49,0.49-0.49,0.735
		c0,0.243,0.123,0.486,0.367,0.731c0.246,0.122,0.488,0.364,0.976,0.488c0.488,0.12,0.978,0.242,1.587,0.363
		c0.852,0.247,1.461,0.49,1.95,0.732c0.487,0.245,0.854,0.608,1.22,0.975C97.121,16.614,97.244,17.102,97.244,17.466L97.244,17.466
		L97.244,17.466z M101.389,8.079v3.898c0.369-0.362,0.611-0.729,0.977-0.85c0.367-0.247,0.609-0.368,1.1-0.492
		c0.365-0.117,0.852-0.117,1.217-0.117c0.611,0,1.221,0.117,1.707,0.362c0.487,0.247,0.854,0.734,1.221,1.219
		c0.243,0.368,0.367,0.61,0.367,1.1c0.121,0.366,0.121,0.854,0.121,1.341v4.755c0,0.489-0.121,0.855-0.366,1.22
		c-0.246,0.244-0.611,0.366-0.975,0.366c-0.854,0-1.342-0.488-1.342-1.586v-4.389c0-0.853-0.122-1.462-0.366-1.95
		s-0.732-0.73-1.463-0.73c-0.488,0-0.854,0.119-1.221,0.364c-0.365,0.244-0.607,0.609-0.852,1.098
		c-0.125,0.366-0.242,1.096-0.242,2.07v3.537c0,0.489-0.125,0.856-0.369,1.221c-0.242,0.243-0.609,0.365-0.975,0.365
		c-0.854,0-1.341-0.487-1.341-1.586V7.956c0-0.487,0.122-0.976,0.364-1.218c0.246-0.246,0.49-0.367,0.977-0.367
		c0.365,0,0.732,0.121,0.975,0.367C101.27,7.103,101.389,7.589,101.389,8.079L101.389,8.079L101.389,8.079z"/>
	<path fill-rule="evenodd" clip-rule="evenodd" fill="#808285" d="M65.094,30.219v-3.811c0-0.326,0.074-0.566,0.221-0.729
		c0.145-0.164,0.337-0.244,0.575-0.244c0.247,0,0.444,0.08,0.591,0.244c0.146,0.162,0.219,0.404,0.219,0.729v3.898
		c0,0.443,0.051,0.814,0.15,1.111c0.098,0.297,0.275,0.527,0.525,0.691c0.253,0.166,0.605,0.246,1.06,0.246
		c0.628,0,1.07-0.166,1.331-0.5c0.26-0.334,0.389-0.84,0.389-1.518v-3.93c0-0.326,0.072-0.572,0.217-0.732
		c0.144-0.162,0.337-0.24,0.579-0.24c0.239,0,0.435,0.078,0.585,0.24c0.149,0.16,0.225,0.406,0.225,0.732v3.811
		c0,0.619-0.061,1.139-0.181,1.553c-0.122,0.414-0.349,0.777-0.685,1.092c-0.288,0.266-0.624,0.459-1.006,0.584
		c-0.382,0.121-0.828,0.182-1.34,0.182c-0.609,0-1.133-0.066-1.574-0.197c-0.439-0.131-0.797-0.336-1.074-0.611
		c-0.278-0.273-0.481-0.629-0.612-1.059C65.158,31.332,65.094,30.816,65.094,30.219L65.094,30.219z M78.552,31.119
		c0,0.479-0.124,0.908-0.37,1.289c-0.246,0.383-0.607,0.682-1.084,0.898c-0.477,0.215-1.041,0.322-1.692,0.322
		c-0.782,0-1.429-0.146-1.937-0.441c-0.359-0.211-0.65-0.496-0.876-0.85c-0.226-0.355-0.338-0.699-0.338-1.035
		c0-0.195,0.068-0.361,0.203-0.502c0.135-0.137,0.307-0.205,0.515-0.205c0.17,0,0.313,0.053,0.428,0.162
		c0.119,0.107,0.219,0.268,0.302,0.48c0.099,0.252,0.21,0.465,0.326,0.633c0.118,0.17,0.282,0.309,0.495,0.42
		c0.214,0.109,0.492,0.164,0.84,0.164c0.474,0,0.861-0.111,1.158-0.332s0.447-0.498,0.447-0.83c0-0.264-0.08-0.479-0.24-0.641
		c-0.16-0.164-0.369-0.289-0.624-0.377c-0.253-0.086-0.595-0.178-1.019-0.275c-0.568-0.135-1.047-0.291-1.429-0.469
		c-0.384-0.178-0.688-0.422-0.913-0.73s-0.338-0.689-0.338-1.148c0-0.436,0.118-0.824,0.356-1.164
		c0.237-0.338,0.583-0.598,1.033-0.779c0.45-0.184,0.979-0.273,1.589-0.273c0.485,0,0.906,0.061,1.262,0.18
		c0.355,0.123,0.65,0.283,0.885,0.482c0.232,0.199,0.404,0.41,0.514,0.629c0.106,0.221,0.162,0.436,0.162,0.645
		c0,0.189-0.068,0.363-0.203,0.518c-0.135,0.152-0.305,0.229-0.506,0.229c-0.185,0-0.323-0.047-0.419-0.137
		c-0.097-0.092-0.199-0.244-0.31-0.453c-0.146-0.299-0.318-0.533-0.521-0.701c-0.201-0.168-0.525-0.25-0.974-0.25
		c-0.413,0-0.749,0.09-1.003,0.273c-0.254,0.182-0.381,0.4-0.381,0.656c0,0.158,0.042,0.295,0.129,0.412
		c0.086,0.113,0.207,0.213,0.357,0.297c0.152,0.082,0.305,0.146,0.46,0.195c0.155,0.047,0.411,0.113,0.768,0.205
		c0.446,0.105,0.853,0.219,1.214,0.348c0.362,0.125,0.67,0.277,0.926,0.459c0.254,0.178,0.451,0.408,0.594,0.682
		C78.48,30.381,78.552,30.719,78.552,31.119L78.552,31.119z M79.939,25.568h2.094c0.544,0,1.011,0.049,1.4,0.15
		c0.391,0.102,0.744,0.293,1.061,0.568c0.825,0.707,1.238,1.783,1.238,3.225c0,0.477-0.04,0.91-0.123,1.303
		s-0.213,0.748-0.385,1.064c-0.172,0.314-0.395,0.598-0.666,0.846c-0.212,0.189-0.443,0.344-0.697,0.457
		c-0.252,0.117-0.523,0.199-0.813,0.244c-0.29,0.047-0.618,0.07-0.981,0.07h-2.094c-0.291,0-0.511-0.045-0.66-0.133
		c-0.147-0.088-0.244-0.213-0.288-0.373c-0.046-0.16-0.068-0.369-0.068-0.623v-5.816c0-0.344,0.077-0.596,0.233-0.75
		C79.344,25.645,79.595,25.568,79.939,25.568L79.939,25.568z M80.562,26.842v5.381h1.218c0.266,0,0.477-0.008,0.628-0.021
		c0.151-0.016,0.308-0.051,0.471-0.107c0.163-0.059,0.303-0.141,0.421-0.244c0.537-0.453,0.807-1.236,0.807-2.348
		c0-0.781-0.119-1.369-0.354-1.758c-0.236-0.389-0.528-0.637-0.873-0.744c-0.347-0.105-0.767-0.158-1.255-0.158H80.562
		L80.562,26.842z"/>
	<path fill="#808285" d="M93.188,26.809h-3.163v2.025h2.645c0.244,0,0.428,0.057,0.549,0.164c0.119,0.111,0.18,0.26,0.18,0.441
		c0,0.186-0.061,0.33-0.182,0.439c-0.125,0.109-0.307,0.162-0.547,0.162h-2.645v2.609c0,0.332-0.076,0.578-0.225,0.738
		c-0.15,0.16-0.342,0.24-0.574,0.24c-0.238,0-0.432-0.08-0.582-0.244c-0.148-0.162-0.225-0.406-0.225-0.734v-6.1
		c0-0.23,0.035-0.418,0.104-0.564c0.068-0.145,0.175-0.252,0.32-0.318c0.146-0.066,0.332-0.1,0.56-0.1h3.785
		c0.257,0,0.446,0.057,0.57,0.17s0.187,0.264,0.187,0.445c0,0.189-0.063,0.34-0.187,0.455C93.635,26.75,93.445,26.809,93.188,26.809
		L93.188,26.809z M100.929,30.992c0,0.252-0.061,0.525-0.187,0.818c-0.123,0.295-0.318,0.582-0.587,0.865
		c-0.266,0.283-0.606,0.512-1.021,0.689c-0.415,0.176-0.898,0.264-1.45,0.264c-0.417,0-0.798-0.039-1.141-0.117
		c-0.341-0.08-0.653-0.203-0.933-0.371c-0.277-0.166-0.537-0.389-0.771-0.66c-0.208-0.25-0.387-0.527-0.535-0.836
		c-0.146-0.307-0.258-0.639-0.332-0.986c-0.073-0.352-0.11-0.723-0.11-1.115c0-0.637,0.093-1.209,0.278-1.713
		c0.186-0.506,0.453-0.938,0.798-1.295c0.347-0.357,0.751-0.631,1.216-0.82c0.465-0.186,0.961-0.279,1.487-0.279
		c0.643,0,1.213,0.127,1.715,0.383c0.5,0.256,0.884,0.572,1.151,0.949c0.266,0.377,0.4,0.73,0.4,1.066
		c0,0.186-0.066,0.346-0.195,0.488c-0.129,0.139-0.286,0.209-0.471,0.209c-0.205,0-0.359-0.049-0.461-0.145
		c-0.104-0.098-0.218-0.266-0.344-0.504c-0.21-0.395-0.455-0.688-0.738-0.883c-0.284-0.193-0.631-0.291-1.046-0.291
		c-0.661,0-1.185,0.25-1.576,0.75c-0.392,0.502-0.587,1.215-0.587,2.139c0,0.615,0.087,1.129,0.26,1.537
		c0.172,0.41,0.418,0.715,0.734,0.918c0.318,0.201,0.689,0.303,1.115,0.303c0.461,0,0.851-0.115,1.17-0.344s0.559-0.564,0.722-1.008
		c0.068-0.209,0.153-0.379,0.255-0.512c0.1-0.131,0.262-0.197,0.485-0.197c0.192,0,0.356,0.066,0.493,0.201
		C100.86,30.629,100.929,30.795,100.929,30.992L100.929,30.992z M106.473,32.598l-0.378-0.994h-3.222l-0.379,1.014
		c-0.147,0.396-0.273,0.664-0.379,0.803c-0.104,0.139-0.274,0.209-0.513,0.209c-0.201,0-0.38-0.074-0.535-0.221
		c-0.155-0.148-0.232-0.316-0.232-0.502c0-0.109,0.019-0.223,0.054-0.336c0.037-0.117,0.096-0.275,0.179-0.482l2.026-5.145
		c0.059-0.148,0.127-0.324,0.209-0.531c0.081-0.209,0.168-0.381,0.26-0.518s0.213-0.248,0.361-0.332
		c0.15-0.084,0.334-0.127,0.555-0.127c0.225,0,0.411,0.043,0.561,0.127s0.27,0.193,0.361,0.326c0.093,0.133,0.17,0.277,0.232,0.43
		c0.063,0.154,0.145,0.359,0.24,0.613l2.07,5.113c0.162,0.391,0.244,0.672,0.244,0.85c0,0.184-0.076,0.354-0.229,0.506
		c-0.153,0.152-0.34,0.229-0.556,0.229c-0.126,0-0.235-0.021-0.325-0.068c-0.088-0.045-0.164-0.105-0.227-0.182
		c-0.061-0.078-0.126-0.199-0.195-0.357C106.584,32.861,106.524,32.719,106.473,32.598L106.473,32.598z M103.295,30.396h2.367
		l-1.193-3.268L103.295,30.396L103.295,30.396z"/>
	<path fill-rule="evenodd" clip-rule="evenodd" fill="#808285" d="M87.04,28.611c0.509,0,0.921,0.412,0.921,0.92
		c0,0.51-0.412,0.922-0.921,0.922s-0.921-0.412-0.921-0.922C86.119,29.023,86.531,28.611,87.04,28.611L87.04,28.611z"/>
</g>
</svg>
