<?xml version="1.0" encoding="utf-8"?>
<!-- Generator: Adobe Illustrator 16.0.0, SVG Export Plug-In . SVG Version: 6.00 Build 0)  -->
<!DOCTYPE svg PUBLIC "-//W3C//DTD SVG 1.1//EN" "http://www.w3.org/Graphics/SVG/1.1/DTD/svg11.dtd">
<svg version="1.1" id="Layer_1" xmlns="http://www.w3.org/2000/svg" xmlns:xlink="http://www.w3.org/1999/xlink" x="0px" y="0px"
	 width="107px" height="68px" viewBox="0 0 107 68" enable-background="new 0 0 107 68" xml:space="preserve">
<path fill="#FFFFFF" stroke="#9AB4D8" stroke-width="0.5" stroke-miterlimit="10" d="M12.743,4.603h81.513
	c4.494,0,8.238,3.744,8.238,8.24v42.314c0,4.494-3.744,8.24-8.238,8.24H12.743c-4.495,0-8.237-3.746-8.237-8.24V12.843
	C4.506,8.347,8.248,4.603,12.743,4.603"/>
<g>
	<path fill-rule="evenodd" clip-rule="evenodd" fill="#757575" d="M36.635,23.384h28.712c-0.105-1.356-0.049-2.724,0.181-4.061
		H33.563c-0.816,0-1.098,0.813-1.098,1.646v7.787c1.452,1.031,2.402,2.724,2.402,4.633v15.35h42.49c1.205,0,1.646-0.56,1.646-1.756
		v-9.326c-1.446-0.099-2.847-0.396-4.17-0.893v7.804H36.635V23.384L36.635,23.384z"/>
	<path fill-rule="evenodd" clip-rule="evenodd" fill="#757575" d="M34.867,54.746h42.269c1.651,0,3.53-0.729,4.418-1.512
		c0.708-0.628,0.816-0.677,1.401-1.562c0.309-0.464,1.654-1.068,0.217-1.068H34.867V54.746L34.867,54.746z M51.563,51.741h8.341
		v1.865h-8.341V51.741L51.563,51.741z"/>
	<path fill-rule="evenodd" clip-rule="evenodd" fill="#C34D4D" d="M71.785,22.76c-0.968-10.568,16.806-12.669,17.309-0.673
		C89.544,32.829,72.865,34.553,71.785,22.76L71.785,22.76z M78.739,9.704C61.662,11.977,65.625,37.5,82.145,35.149
		C98.997,32.75,95.697,7.446,78.739,9.704L78.739,9.704z"/>
	<path fill="#C34D4D" d="M79.921,29.806v-1.219h-0.457c-1.367,0-2.401-0.242-3.097-0.724c-0.69-0.482-1.039-1.202-1.039-2.158
		v-1.058h2.986v0.054c0,0.462,0.105,0.789,0.314,0.975c0.213,0.185,0.582,0.279,1.121,0.279h0.171v-2.612
		c-1.657-0.084-2.82-0.397-3.495-0.937c-0.674-0.538-1.009-1.417-1.009-2.638v-0.638c0-1.189,0.315-2.046,0.944-2.576
		c0.631-0.527,1.664-0.792,3.103-0.792h0.457v-0.989h0.972v0.989h0.559c1.202,0,2.139,0.239,2.804,0.715
		c0.668,0.478,1.001,1.149,1.001,2.008v0.739h-3.021c0-0.327-0.09-0.556-0.271-0.695c-0.18-0.139-0.479-0.207-0.897-0.207h-0.174
		v2.456c1.743,0.126,2.973,0.441,3.691,0.941c0.719,0.501,1.077,1.284,1.077,2.347v1.079c0,1.052-0.315,1.886-0.943,2.502
		c-0.632,0.615-1.491,0.926-2.577,0.938h-1.248v1.219H79.921L79.921,29.806z M80.893,23.483v2.473h0.155
		c0.561,0,0.94-0.065,1.146-0.198c0.204-0.132,0.305-0.368,0.305-0.707v-0.456c0-0.362-0.111-0.624-0.335-0.786
		C81.938,23.651,81.514,23.542,80.893,23.483L80.893,23.483z M79.921,20.651v-2.326H79.75c-0.422,0-0.727,0.068-0.917,0.2
		c-0.191,0.136-0.29,0.349-0.29,0.643v0.533c0,0.282,0.112,0.499,0.333,0.656C79.098,20.513,79.443,20.609,79.921,20.651
		L79.921,20.651z"/>
	<path fill-rule="evenodd" clip-rule="evenodd" fill="#757575" d="M17.007,30.137h12.181c1.789,0,3.253,1.462,3.253,3.251v21.799
		c0,1.789-1.464,3.252-3.253,3.252H17.007c-1.789,0-3.252-1.463-3.252-3.252V33.389C13.755,31.599,15.218,30.137,17.007,30.137
		L17.007,30.137z M20.723,31.688h4.749c0.283,0,0.515,0.231,0.515,0.514l0,0c0,0.282-0.231,0.515-0.515,0.515h-4.749
		c-0.283,0-0.514-0.233-0.514-0.515l0,0C20.209,31.918,20.44,31.688,20.723,31.688L20.723,31.688z M23.098,55.111
		c0.724,0,1.31,0.586,1.31,1.31s-0.586,1.309-1.31,1.309c-0.723,0-1.31-0.585-1.31-1.309S22.375,55.111,23.098,55.111L23.098,55.111
		z M15.361,34.212v20.153h15.475V34.212H15.361L15.361,34.212z"/>
	<path fill="#C34D4D" d="M22.352,47.335l0.329-1.642h-1.587v-1.801h1.948l0.467-2.334h1.84l-0.466,2.334h1.441l0.467-2.334h1.853
		l-0.467,2.334h0.908v1.801h-1.267l-0.329,1.642h1.596v1.8h-1.957L26.67,51.43h-1.854l0.46-2.295h-1.443l-0.457,2.295h-1.841
		l0.458-2.295h-0.898v-1.8H22.352L22.352,47.335z M24.193,47.335h1.443l0.327-1.642h-1.44L24.193,47.335L24.193,47.335z"/>
	<path fill="#C34D4D" d="M18.527,39.022h1.44l-0.118,0.984c-0.026,0.24-0.079,0.512-0.162,0.815
		c0.165-0.081,0.273-0.139,0.325-0.172c0.183-0.098,0.321-0.169,0.416-0.212l0.905-0.432l0.45,1.376l-1.001,0.21
		c-0.182,0.031-0.453,0.059-0.813,0.07c0.243,0.191,0.436,0.365,0.579,0.521l0.676,0.734l-1.17,0.878l-0.482-0.878
		c-0.069-0.126-0.182-0.371-0.338-0.734c-0.171,0.4-0.282,0.644-0.34,0.734l-0.489,0.878l-1.209-0.878l0.731-0.734
		c0.208-0.205,0.407-0.378,0.603-0.521c-0.201-0.019-0.462-0.056-0.789-0.117l-1.012-0.163l0.467-1.376l0.909,0.411
		c0.096,0.043,0.333,0.178,0.711,0.404c-0.082-0.367-0.135-0.639-0.155-0.815L18.527,39.022L18.527,39.022z"/>
</g>
</svg>
