<?xml version="1.0" encoding="utf-8"?>
<!-- Generator: Adobe Illustrator 16.0.0, SVG Export Plug-In . SVG Version: 6.00 Build 0)  -->
<!DOCTYPE svg PUBLIC "-//W3C//DTD SVG 1.1//EN" "http://www.w3.org/Graphics/SVG/1.1/DTD/svg11.dtd">
<svg version="1.1" id="Layer_1" xmlns="http://www.w3.org/2000/svg" xmlns:xlink="http://www.w3.org/1999/xlink" x="0px" y="0px"
	 width="108.938px" height="69.5px" viewBox="0 0 108.938 69.5" enable-background="new 0 0 108.938 69.5" xml:space="preserve">
<path fill="#FFFFFF" stroke="#9AB4D8" stroke-width="0.5" stroke-miterlimit="10" d="M13.712,5.354h81.513
	c4.494,0,8.238,3.744,8.238,8.239v42.314c0,4.493-3.744,8.239-8.238,8.239H13.712c-4.495,0-8.237-3.746-8.237-8.239V13.593
	C5.474,9.098,9.217,5.354,13.712,5.354"/>
<path fill="#8C04A8" d="M24.2,33.41c0.625,0.015,1.244-0.105,1.817-0.353c0.49-0.216,0.923-0.544,1.263-0.959
	c0.326-0.409,0.572-0.877,0.723-1.379c0.157-0.523,0.236-1.068,0.234-1.617c-0.001-0.566-0.104-1.131-0.303-1.663
	c-0.194-0.539-0.492-1.037-0.875-1.465c-0.855-0.951-2.085-1.48-3.363-1.446H19.23c-0.711,0-1.287,0.577-1.288,1.287v6.309
	c0.001,0.71,0.577,1.287,1.288,1.289L24.2,33.41z M24.2,20.355c1.174-0.006,2.337,0.228,3.416,0.69
	c2.096,0.883,3.761,2.548,4.646,4.643c0.462,1.079,0.697,2.242,0.689,3.414c0.012,1.15-0.194,2.291-0.605,3.364
	c-0.396,1.021-1.007,1.943-1.787,2.709c-0.785,0.771-1.777,1.377-2.978,1.817c-1.199,0.438-2.584,0.659-4.15,0.657h-5.488v6.026
	c0,0.723-0.585,1.308-1.308,1.308l0,0h-2.113c-0.712,0-1.289-0.577-1.289-1.287c0-0.001,0-0.001,0-0.001V21.645
	c0-0.711,0.575-1.287,1.286-1.289c0,0,0.001,0,0.003,0H24.2z"/>
<path fill="#8C04A8" d="M65.688,20.381c0.801,0,1.404,0.854,0.852,1.757c-0.553,0.903-8.123,13.982-8.709,14.985
	c-0.115,0.198-0.176,0.422-0.176,0.651l0.034,7.21h-3.456c-0.71,0.001-1.287-0.576-1.288-1.287v-0.001v-5.926
	c0-0.227-0.061-0.449-0.173-0.646c-1.408-2.456-5.138-8.866-6.272-10.77c-0.511-0.859,0.056-1.798,1.052-1.798h2.403
	c0.467-0.003,0.902,0.233,1.156,0.625c0.89,1.487,2.638,4.467,3.298,5.573c0.497,0.834,1.25,0.84,1.754,0.01
	c0.143-0.233,5.341-9.16,5.7-9.76c0.211-0.387,0.617-0.628,1.059-0.631L65.688,20.381z"/>
<path fill="#8C04A8" d="M38.325,36.795h3.049c0.731-0.003,1.319-0.599,1.316-1.329c-0.002-0.192-0.045-0.382-0.127-0.556
	l-1.565-3.02c-0.476-1.012-1.812-1.014-2.292,0l-1.576,3.02c-0.314,0.659-0.035,1.449,0.623,1.763
	c0.179,0.085,0.373,0.131,0.571,0.128 M28.857,44.993c-0.73,0-1.322-0.593-1.322-1.323c0-0.211,0.051-0.418,0.146-0.604
	l8.563-16.296c1.007-2,3.443-2.805,5.443-1.799c0.771,0.389,1.398,1.013,1.79,1.783l8.563,16.312
	c0.333,0.65,0.076,1.447-0.574,1.779c-0.188,0.095-0.394,0.146-0.603,0.146h-2.271c-0.489-0.002-0.932-0.289-1.133-0.736
	L46.17,41.75c-0.224-0.45-0.683-0.735-1.186-0.735H34.71c-0.504,0-0.963,0.286-1.187,0.74l-1.262,2.487
	c-0.2,0.449-0.646,0.741-1.14,0.742L28.857,44.993z"/>
<path fill="#8C04A8" d="M98.838,35.904c-1.039-2.454-2.988-4.41-5.438-5.455c-2.539-1.077-5.404-1.077-7.942,0
	c-2.449,1.044-4.397,2.998-5.436,5.449c-0.541,1.254-0.814,2.606-0.809,3.971c0,0.315,0.016,0.631,0.043,0.938H68.731
	c-0.686,0-1.241,0.557-1.241,1.242v1.604c0,0.685,0.556,1.241,1.241,1.242h5.564c1,0,1.601,1.129,1.027,1.947l-0.095,0.129
	c-1.427,1.926-3.687,3.057-6.084,3.049c-1.047,0.008-2.083-0.217-3.031-0.659c-0.925-0.432-1.76-1.032-2.464-1.77
	c-0.71-0.744-1.277-1.612-1.672-2.562c-0.822-1.969-0.822-4.184,0-6.15c0.393-0.957,0.958-1.831,1.672-2.579
	c0.704-0.738,1.539-1.338,2.464-1.77c0.949-0.444,1.986-0.672,3.035-0.664c1.28-0.005,2.534,0.354,3.618,1.038
	c0.77,0.472,1.465,1.057,2.065,1.732c0.395,0.461,1.064,0.569,1.585,0.258l1.786-1.086c0.587-0.349,0.778-1.106,0.429-1.691
	c-0.03-0.051-0.064-0.1-0.102-0.146c-0.979-1.16-2.16-2.13-3.488-2.863c-1.785-0.995-3.748-1.491-5.889-1.491
	c-1.641-0.011-3.264,0.321-4.77,0.973c-1.461,0.628-2.79,1.523-3.919,2.645c-1.129,1.127-2.031,2.459-2.66,3.926
	c-0.655,1.51-0.989,3.14-0.981,4.786c-0.009,1.642,0.324,3.267,0.981,4.77c1.272,2.947,3.628,5.293,6.579,6.555
	c1.506,0.651,3.129,0.982,4.77,0.975c1.501,0.005,2.991-0.259,4.398-0.779c1.351-0.494,2.604-1.226,3.697-2.158
	c1.074-0.923,1.965-2.041,2.629-3.293c0.438-0.827,0.767-1.709,0.975-2.623c0.394,0.617,0.852,1.189,1.367,1.709
	c0.931,0.928,2.029,1.673,3.238,2.192c2.538,1.076,5.403,1.076,7.941,0c2.444-1.045,4.392-2.992,5.437-5.437
	c1.077-2.542,1.077-5.413,0-7.953H98.838z M94.966,42.247c-0.308,0.736-0.743,1.413-1.289,1.996
	c-0.542,0.577-1.188,1.046-1.905,1.382c-1.485,0.687-3.197,0.687-4.684,0c-0.718-0.336-1.364-0.805-1.904-1.382
	c-0.546-0.583-0.983-1.26-1.29-1.996c-0.634-1.524-0.634-3.235,0-4.759c0.302-0.739,0.739-1.416,1.29-1.997
	c0.544-0.569,1.191-1.033,1.904-1.367c1.486-0.687,3.198-0.687,4.684,0c0.715,0.334,1.361,0.798,1.905,1.367
	c0.55,0.581,0.987,1.258,1.289,1.997C95.603,39.012,95.603,40.724,94.966,42.247z"/>
</svg>
