<?xml version="1.0" encoding="utf-8"?>
<!-- Generator: Adobe Illustrator 16.0.0, SVG Export Plug-In . SVG Version: 6.00 Build 0)  -->
<!DOCTYPE svg PUBLIC "-//W3C//DTD SVG 1.1//EN" "http://www.w3.org/Graphics/SVG/1.1/DTD/svg11.dtd">
<svg version="1.1" id="Layer_1" xmlns="http://www.w3.org/2000/svg" xmlns:xlink="http://www.w3.org/1999/xlink" x="0px" y="0px"
	 width="107px" height="68px" viewBox="0 0 107 68" enable-background="new 0 0 107 68" xml:space="preserve">
<path fill="#FFFFFF" stroke="#9AB4D8" stroke-width="0.5" stroke-miterlimit="10" d="M12.743,4.603h81.513
	c4.494,0,8.238,3.744,8.238,8.24v42.314c0,4.494-3.744,8.24-8.238,8.24H12.743c-4.495,0-8.237-3.746-8.237-8.24V12.843
	C4.506,8.347,8.248,4.603,12.743,4.603"/>
<g>
	<path d="M28.091,44.73c0-3.267-2.288-5.399-5.836-5.399h-5.938l-3.24,18.354h4.475l1.207-6.812h2.185
		C25.341,50.873,28.091,48.662,28.091,44.73L28.091,44.73z M19.427,46.938l0.671-3.675h1.876c1.002,0,1.619,0.745,1.619,1.645
		c0,1.362-0.977,2.03-2.16,2.03H19.427L19.427,46.938z M28.325,49.098c0,4.528,2.982,8.793,9.201,8.793
		c6.814,0,10.311-4.963,10.311-9.895c0-4.501-3.009-8.87-9.255-8.87C31.848,39.126,28.325,44.214,28.325,49.098L28.325,49.098z
		 M43.21,48.071c0,2.93-1.827,5.682-5.349,5.682c-3.315,0-4.91-2.237-4.91-4.756c0-2.904,1.852-5.681,5.374-5.681
		C41.616,43.316,43.21,45.759,43.21,48.071L43.21,48.071z M60.77,44.112l2.082-3.238c-1.568-0.977-2.982-1.645-6.016-1.645
		c-4.473,0-7.019,2.748-7.019,5.55c0,2.982,1.903,4.318,4.808,4.938c1.748,0.36,2.289,1.18,2.289,2.159
		c0,1.233-0.822,2.031-2.391,2.031c-1.903,0-3.213-0.746-4.37-1.724l-2.571,3.008c1.595,1.49,3.729,2.649,6.607,2.649
		c5.014,0,7.918-2.342,7.918-6.325c0-2.878-1.725-4.627-5.064-5.347c-1.262-0.257-1.75-0.873-1.75-1.465
		c0-1.106,0.953-1.619,2.188-1.619C58.893,43.085,59.742,43.495,60.77,44.112L60.77,44.112z"/>
	<path fill="#165FF8" d="M63.791,45.642h4.344c0.209-1.259,0.951-2.647,2.16-2.647c1.158,0,1.568,0.72,1.568,1.516
		c0,1.055-0.336,1.802-1.031,2.622l-8.74,10.515h12.494l0.645-3.676h-4.756l3.498-4.241c1.412-1.697,2.672-3.393,2.672-5.68
		c0-2.752-1.852-4.861-6.041-4.861C65.924,39.188,64.178,42.841,63.791,45.642L63.791,45.642z M82.273,50.963l2.059-11.67h-4.447
		l-2.004,11.413c-0.105,0.591-0.156,1.132-0.156,1.646c0,3.779,2.725,5.475,6.092,5.475c4.164,0,7.148-1.695,7.842-5.603
		l2.264-12.931h-4.447l-2.109,11.979c-0.307,1.695-1.488,2.365-2.881,2.365c-1.154,0-2.26-0.591-2.26-2.056
		C82.225,51.376,82.25,51.17,82.273,50.963L82.273,50.963z"/>
	<path fill-rule="evenodd" clip-rule="evenodd" fill="#BE0006" d="M58.02,20.063c0,1.296,0.367,0.998,0.887,1.774l-9.947-0.003
		c-0.696-0.005-0.954-0.008-1.353,0.321c-1.079,0.891-0.831,2.852,1.253,2.835l10.047-0.002c-0.52,0.775-0.887,0.477-0.887,1.772
		c0,0.713,0.686,1.378,1.773,1.378c0.746,0,2.051-1.511,2.535-1.995c2.686-2.682,2.686-2.78,0-5.465
		c-1.08-1.079-1.652-1.995-2.93-1.995C58.785,18.683,58.02,19.448,58.02,20.063L58.02,20.063z"/>
	<path fill-rule="evenodd" clip-rule="evenodd" d="M31.737,30.14c0-1.471,2.146-1.473,2.146,0
		C33.883,31.491,31.737,31.491,31.737,30.14L31.737,30.14z M30.053,29.937v0.256c0,0.504-0.467,0.969-0.971,0.969
		c-0.5,0-0.934-0.184-1.094-0.693c-0.126-0.409-0.045-0.842,0.242-1.13c0.286-0.286,0.72-0.367,1.128-0.239
		C29.737,29.218,30.053,29.649,30.053,29.937L30.053,29.937z M25.354,31.162c-0.888,0-1.227-0.339-1.227-1.226
		c0-0.177,0.147-0.417,0.241-0.524c0.771-0.883,2.221-0.104,1.823,1.056C26.088,30.769,25.709,31.162,25.354,31.162L25.354,31.162z
		 M31.737,26.259c0-1.37,2.146-1.353,2.146,0C33.883,27.733,31.737,27.733,31.737,26.259L31.737,26.259z M28.826,25.238
		c0.887,0,1.228,0.34,1.228,1.225c0,0.923-1.774,1.388-2.095,0.101c-0.059-0.239-0.044-0.392,0.029-0.631
		c0.075-0.235,0.151-0.31,0.314-0.455C28.411,25.385,28.65,25.238,28.826,25.238L28.826,25.238z M24.127,26.463
		c0-0.885,0.339-1.225,1.227-1.225c0.354,0,0.734,0.394,0.837,0.695c0.301,0.876-0.493,1.669-1.369,1.369
		C24.522,27.199,24.127,26.819,24.127,26.463L24.127,26.463z M31.737,22.532c0-1.5,2.146-1.5,2.146,0
		C33.883,23.871,31.737,23.871,31.737,22.532L31.737,22.532z M27.907,22.48c0-0.515,0.419-1.072,1.124-1.072
		c1.351,0,1.351,2.144,0,2.144c-0.36,0-0.583-0.11-0.781-0.292C28.098,23.12,27.907,22.749,27.907,22.48L27.907,22.48z
		 M25.149,23.552c-1.354,0-1.372-2.144,0-2.144C26.623,21.408,26.624,23.552,25.149,23.552L25.149,23.552z M23.823,19.059v-4.596
		c0-0.644,0.327-0.971,0.97-0.971h8.427c0.536,0,0.918,0.339,0.918,0.714v5.107c0,0.375-0.382,0.715-0.918,0.715h-8.427
		C24.167,20.029,23.823,19.685,23.823,19.059L23.823,19.059z M21.063,14.053v16.854c0,2.032,1.288,3.319,3.32,3.319h9.143
		c1.458,0,2.401-0.502,3.029-1.616c0.162-0.289,0.34-0.815,0.34-1.244V13.594c0-0.828-0.548-1.727-1.013-2.102
		c-0.621-0.5-1.25-0.758-2.356-0.758h-9.143C22.351,10.734,21.063,12.022,21.063,14.053L21.063,14.053z"/>
	<path fill-rule="evenodd" clip-rule="evenodd" d="M37.968,30.958h4.443c1.311,0,2.146-0.838,2.146-2.144v-6.078h-6.589V30.958
		L37.968,30.958z"/>
	<path fill-rule="evenodd" clip-rule="evenodd" d="M37.968,21.153h6.435c0.119,0,0.154-0.037,0.154-0.154
		c0-0.876,0.127-2.18-0.328-2.839c-0.167-0.242-0.304-0.369-0.533-0.539c-0.318-0.236-0.86-0.349-1.286-0.349h-4.443V21.153
		L37.968,21.153z"/>
	<path fill-rule="evenodd" clip-rule="evenodd" d="M65.629,19.997c0,1.501,1.443,1.225,2.664,1.225v12.067
		c0,0.395,0.4,0.593,0.846,0.593h4.908c0.221,0,0.451-0.031,0.58-0.137c0.113-0.089,0.266-0.271,0.266-0.456V24.69h3.125v8.598
		c0,0.395,0.4,0.593,0.848,0.593h4.906c0.445,0,0.846-0.198,0.846-0.593V21.222h1.521c0.637,0,1.143-0.517,1.143-1.014
		c0-0.812-0.406-0.962-1.129-1.661l-2.018-1.832c-0.152-0.117-0.201-0.173-0.332-0.303l-6.109-5.559
		c-1.367-1.388-1.789-0.56-2.791,0.275l-2.01,1.837c-0.135,0.137-0.186,0.183-0.334,0.302l-6.102,5.569
		C66.139,19.084,65.629,19.553,65.629,19.997L65.629,19.997z"/>
	<path fill-rule="evenodd" clip-rule="evenodd" d="M85.082,15.854v-3.511c0.004-1.243-0.545-0.972-2.539-0.972
		c-0.787,0-1.576,0-2.367,0c0.051,0.135,0.07,0.089,0.266,0.285l1.246,1.124c0.115,0.096,0.186,0.194,0.297,0.293
		c0.129,0.111,0.191,0.146,0.318,0.274L85.082,15.854L85.082,15.854z"/>
</g>
</svg>
