<?xml version="1.0" encoding="utf-8"?>
<!-- Generator: Adobe Illustrator 16.0.0, SVG Export Plug-In . SVG Version: 6.00 Build 0)  -->
<!DOCTYPE svg PUBLIC "-//W3C//DTD SVG 1.1//EN" "http://www.w3.org/Graphics/SVG/1.1/DTD/svg11.dtd">
<svg version="1.1" id="Layer_1" xmlns="http://www.w3.org/2000/svg" xmlns:xlink="http://www.w3.org/1999/xlink" x="0px" y="0px"
	 width="108.901px" height="69.5px" viewBox="0 0 108.901 69.5" enable-background="new 0 0 108.901 69.5" xml:space="preserve">
<path fill="#FFFFFF" stroke="#9AB4D8" stroke-width="0.5" stroke-miterlimit="10" d="M13.694,5.354h81.513
	c4.494,0,8.238,3.744,8.238,8.238v42.315c0,4.493-3.744,8.239-8.238,8.239H13.694c-4.495,0-8.238-3.746-8.238-8.239V13.592
	C5.455,9.098,9.199,5.354,13.694,5.354"/>
<g>
	<path fill-rule="evenodd" clip-rule="evenodd" fill="#2F3681" d="M54.581,13.011c6.951,0,12.586,5.635,12.586,12.586
		s-5.635,12.586-12.586,12.586s-12.586-5.635-12.586-12.586S47.63,13.011,54.581,13.011L54.581,13.011z"/>
	<path fill-rule="evenodd" clip-rule="evenodd" fill="#FFFFFF" d="M54.551,33.214c0,0-0.048,0.164-0.704-0.891
		s-1.312-1.828-3.046-6.891s-0.844-7.688-2.25-8.109c-1.407-0.422-1.407,1.266-1.407,1.734s1.033,7.594,4.032,12.656
		c3,5.063,3.375,3.984,3.938,3.844s2.673-2.953,4.782-8.578c2.108-5.625,2.391-9.141,1.406-9.516
		c-0.985-0.375-1.36,0.328-1.595,1.359s-0.891,5.672-2.438,9.469S54.551,33.214,54.551,33.214L54.551,33.214z"/>
	<path fill-rule="evenodd" clip-rule="evenodd" fill="#222256" d="M19.584,51.262c-0.774,0.769-1.71,1.153-2.802,1.153
		c-1.091,0-2.026-0.385-2.801-1.153l-0.053-0.054v1.221c0.826,0.607,1.776,0.911,2.854,0.911c1.35,0,2.498-0.476,3.453-1.426
		c0.951-0.954,1.426-2.1,1.426-3.446c-0.006-1.347-0.482-2.493-1.432-3.446c-0.955-0.95-2.104-1.426-3.453-1.426
		c-1.35,0-2.498,0.476-3.453,1.426c-0.95,0.953-1.426,2.1-1.419,3.446v7.975h0.925v-3.236v-1.834v-2.904v-0.115l0,0
		c0.027-1.04,0.414-1.935,1.152-2.68c0.774-0.769,1.71-1.153,2.801-1.153c1.092,0,2.027,0.385,2.802,1.153
		c0.766,0.772,1.153,1.705,1.153,2.795C20.737,49.557,20.35,50.489,19.584,51.262L19.584,51.262z M96.12,44.683v-0.986h-3.953
		c-1.206,0-2.369,0.537-2.498,1.894c-0.175,1.841,1.222,2.58,3.018,2.996c1.795,0.416,3.335,0.748,3.486,2.063
		c0.215,1.865-1.695,1.609-2.979,1.609h-3.514v0.987h3.514c1.57,0,3.33,0.231,3.793-1.721c0.217-0.912,0.064-1.583-0.35-2.11
		c-0.826-1.049-2.154-1.491-3.421-1.638c-3.265-0.378-3.118-2.933-1.323-3.095C93.302,44.683,94.712,44.683,96.12,44.683
		L96.12,44.683z M85.292,41.747h-0.93v1.97v2.609h-0.007v4.644c0,1.973,1.042,2.241,3.11,2.269v-0.99
		c-1.413,0.01-2.189,0.037-2.187-1.53l0.013-6.067h2.174v-0.934h-2.174V41.747L85.292,41.747z M73.479,53.247h0.91v-4.758
		c0.018-1.071,0.359-1.986,1.03-2.741c0.669-0.749,1.475-1.123,2.41-1.123c0.933,0,1.738,0.374,2.402,1.13
		c0.669,0.761,1.013,1.676,1.023,2.754v4.738h0.911v-4.738c-0.014-1.349-0.439-2.49-1.283-3.439
		c-0.845-0.959-1.868-1.435-3.061-1.435c-1.193,0-2.209,0.476-3.055,1.429c-0.842,0.948-1.27,2.091-1.289,3.433V53.247
		L73.479,53.247z M69.282,44.459c-0.775-0.529-1.62-0.832-2.532-0.899c-1.347-0.091-2.522,0.303-3.54,1.188
		c-1.016,0.885-1.568,1.996-1.664,3.342c-0.086,1.348,0.307,2.523,1.186,3.543c0.886,1.018,1.998,1.571,3.342,1.668
		c1.346,0.09,2.521-0.305,3.539-1.19c1.016-0.884,1.568-1.995,1.665-3.339c0.032-0.438,0.005-0.874-0.081-1.308h-0.945
		c0.1,0.405,0.136,0.819,0.107,1.243c-0.082,1.087-0.531,1.991-1.352,2.707c-0.824,0.716-1.783,1.037-2.869,0.968
		c-1.088-0.08-1.992-0.532-2.709-1.355c-0.102-0.117-0.193-0.231-0.277-0.346l0,0c-0.063-0.088-0.121-0.176-0.174-0.262
		c-0.063-0.105-0.117-0.209-0.162-0.312l-0.299-0.922c-0.061-0.248-0.078-0.591-0.055-1.026c0.078-1.089,0.527-1.994,1.352-2.711
		c0.821-0.715,1.779-1.035,2.869-0.963c0.434,0.036,0.771,0.102,1.008,0.195l-4.307,3.75l0.455,0.782L69.282,44.459L69.282,44.459z
		 M59.347,47.195c-0.007-0.985-0.359-1.831-1.065-2.535c-0.71-0.688-1.564-1.038-2.565-1.038c-0.718,0-1.385,0.193-1.984,0.58
		c-0.588,0.382-0.988,0.8-1.203,1.266c-0.211-0.466-0.611-0.884-1.197-1.266c-0.598-0.387-1.262-0.58-1.982-0.58
		c-0.984,0-1.837,0.35-2.543,1.038c-0.711,0.691-1.072,1.529-1.086,2.516v6.058h0.912v-6.058c0.004-0.729,0.274-1.354,0.81-1.877
		c0.528-0.521,1.166-0.779,1.907-0.779c0.746,0,1.385,0.258,1.913,0.779c0.528,0.523,0.799,1.148,0.81,1.877v6.058h0.911v-6.058
		c0.011-0.729,0.284-1.354,0.813-1.877c0.535-0.521,1.176-0.779,1.92-0.779s1.385,0.258,1.919,0.779
		c0.53,0.523,0.804,1.148,0.813,1.877v6.058h0.898V47.195L59.347,47.195z M42.296,43.714l-0.007,5.248
		c-0.012,0.909-0.321,1.704-0.922,2.368c-0.628,0.625-1.345,0.939-2.14,0.939c-0.838,0-1.575-0.354-2.207-1.056
		c-0.607-0.832-0.904-1.664-0.884-2.495l0.007-5.005h-0.932v5.009c0.006,1.239,0.398,2.298,1.176,3.173
		c0.676,0.759,1.473,1.191,2.383,1.299v3.756h0.91v-3.757c2.076-0.253,3.559-2.217,3.559-4.313v-5.166H42.296L42.296,43.714z
		 M28.144,52.415c-1.09,0-2.026-0.387-2.801-1.153c-0.766-0.774-1.152-1.709-1.152-2.801s0.387-2.026,1.152-2.802
		c0.774-0.766,1.711-1.152,2.801-1.152c1.092,0,2.027,0.387,2.802,1.152c0.767,0.775,1.153,1.71,1.153,2.802l-0.002,0.114h0.002
		v2.795v1.863h0.924v-4.772c0.007-1.35-0.469-2.498-1.419-3.453c-0.955-0.95-2.104-1.426-3.452-1.426
		c-1.35,0-2.498,0.476-3.453,1.426c-0.951,0.955-1.426,2.104-1.433,3.453c0,1.347,0.476,2.495,1.426,3.45
		c0.955,0.953,2.104,1.429,3.452,1.429c1.078,0,2.028-0.304,2.854-0.911v-1.22l-0.052,0.053
		C30.171,52.028,29.235,52.415,28.144,52.415L28.144,52.415z"/>
</g>
</svg>
